<svg width="24" height="24" viewBox="0 0 24 24" fill="none" xmlns="http://www.w3.org/2000/svg">
<g id="icon/exit">
<path id="Union" d="M5.92805 5C5.68191 5 5.44586 5.09778 5.27182 5.27182C5.09778 5.44586 5 5.68191 5 5.92805C5 6.17418 5.09779 6.41025 5.27183 6.58429L10.6884 12L5.27182 17.4157C5.09778 17.5898 5 17.8258 5 18.072C5 18.3181 5.09778 18.5541 5.27182 18.7282C5.44586 18.9022 5.68191 19 5.92805 19C6.17418 19 6.41025 18.9022 6.58429 18.7282L12 13.3116L17.4157 18.7282C17.5019 18.8144 17.6042 18.8827 17.7168 18.9294C17.8294 18.976 17.9501 19 18.072 19C18.1938 19 18.3145 18.976 18.4271 18.9294C18.5397 18.8827 18.642 18.8144 18.7282 18.7282C18.8144 18.642 18.8827 18.5397 18.9294 18.4271C18.976 18.3145 19 18.1938 19 18.072C19 17.9501 18.976 17.8294 18.9294 17.7168C18.8827 17.6042 18.8143 17.5019 18.7282 17.4157L13.3116 12L18.7282 6.58428C18.9022 6.41024 19 6.17418 19 5.92805C19 5.68191 18.9022 5.44586 18.7282 5.27182C18.5541 5.09778 18.3181 5 18.072 5C17.8258 5 17.5898 5.09779 17.4157 5.27183L12 10.6884L6.58428 5.27182C6.41023 5.09778 6.17418 5 5.92805 5Z" fill="white"/>
</g>
</svg>
